<svg width="28" height="28" viewBox="0 0 28 28" fill="none" xmlns="http://www.w3.org/2000/svg">
<path d="M25.0835 14.2685C25.0835 17.8152 23.8235 20.8135 21.6301 22.8435C19.7168 24.6168 17.0919 25.6668 13.9535 25.6668C9.41519 25.6668 5.4835 23.0418 3.58184 19.2268C2.7885 17.6518 2.3335 15.8785 2.3335 14.0002C2.3335 12.1218 2.7885 10.3485 3.58184 8.77348C5.49517 4.95848 9.41519 2.3335 13.9535 2.3335C17.0919 2.3335 19.7168 3.48848 21.7235 5.37848L18.4102 8.70349C17.1969 7.54849 15.6685 6.95349 13.9535 6.95349C10.9202 6.95349 8.35349 9.00683 7.43182 11.7718C7.19849 12.4718 7.05848 13.2185 7.05848 14.0002C7.05848 14.7818 7.18682 15.5285 7.43182 16.2285C8.35349 19.0052 10.9202 21.0468 13.9535 21.0468C15.5169 21.0468 16.8469 20.6152 17.8969 19.9152C19.1219 19.0868 19.9385 17.8735 20.2185 16.4385H13.9535V12.0518H24.8969C25.0135 12.7635 25.0835 13.4868 25.0835 14.2568V14.2685Z" fill="#F5F2F2"/>
</svg>
